<?xml version="1.0" standalone="no"?><!DOCTYPE svg PUBLIC "-//W3C//DTD SVG 1.1//EN"
        "http://www.w3.org/Graphics/SVG/1.1/DTD/svg11.dtd">
<svg xmlns:xlink="http://www.w3.org/1999/xlink" t="1649471820969" class="icon exchange" viewBox="0 0 1024 1024"
     version="1.1" xmlns="http://www.w3.org/2000/svg"
     p-id="794" width="30" height="30" fill="#824C06">
    <defs>
        <style type="text/css">
            .icon {
            transform: rotate(-15deg) scale(calc(2/3));
            }
        </style>
    </defs>
    <path d="M339.866 223.898L693.76 80.896a79.258 79.258 0 0 1 103.168 43.776l41.626 103.066 11.98 29.644c10.496 25.959-613.888 8.192-510.668-33.484z m431.923 6.86l-24.371-60.313a40.038 40.038 0 0 0-52.122-22.17L444.211 249.754c-122.726 49.561 334.746-1.178 327.578-18.996z"
          p-id="795"></path>
    <path d="M898.048 502.426l-0.614 0.358c-52.122 27.904-67.482 48.077-67.482 88.627 0 40.653 16.64 62.464 68.506 89.293 21.043 15.82 26.88 26.778 26.88 53.862v143.156c0 43.776-35.482 79.206-79.207 79.206H130.458A79.258 79.258 0 0 1 51.2 877.722V734.566c0-21.248 8.704-41.728 30.464-55.09 42.035-14.183 64.973-38.247 64.973-88.065 0-39.117-26.778-69.632-67.584-88.627C56.576 490.598 51.2 477.542 51.2 448.307V305.152c0-43.725 35.482-79.206 79.258-79.206H846.13c43.725 0 79.207 35.481 79.207 79.206v143.155c0 27.955-4.506 39.015-27.239 54.119z m-131.174 89.036c0-62.361 38.4-117.145 95.436-139.724V329.01a40.038 40.038 0 0 0-40.038-40.038H154.317a40.038 40.038 0 0 0-40.039 40.038v122.727a150.272 150.272 0 0 1 95.437 139.724c0 62.31-38.4 117.095-95.437 139.674v122.726c0 22.119 17.92 40.039 40.039 40.039h667.955c22.118 0 40.038-17.92 40.038-40.039V731.136a150.323 150.323 0 0 1-95.436-139.674z"
          p-id="796"></path>
    <path d="M314.88 336.026h51.2v102.4h-51.2z m0 153.6h51.2v102.4h-51.2z m0 153.6h51.2v102.4h-51.2z m0 153.6h51.2v102.4h-51.2z"
          p-id="797"></path>
</svg>